<svg xmlns="http://www.w3.org/2000/svg" fill="none" viewBox="0 0 500 500"><defs><linearGradient id="grad1" x1="0%" y1="0%" x2="100%" y2="100%"><stop offset="0%" style="stop-color:#8b5cf6;stop-opacity:1" /><stop offset="100%" style="stop-color:#ec4899;stop-opacity:1" /></linearGradient></defs><rect width="500" height="500" fill="url(#grad1)" rx="100"/><path fill="#fff" d="M250 100c-41.4 0-75 33.6-75 75v50h-25c-13.8 0-25 11.2-25 25v125c0 13.8 11.2 25 25 25h200c13.8 0 25-11.2 25-25V250c0-13.8-11.2-25-25-25h-25v-50c0-41.4-33.6-75-75-75zm0 50c13.8 0 25 11.2 25 25v50h-50v-50c0-13.8 11.2-25 25-25z"/></svg>
